#!OML:ASF F:\VICON\USERDATA\INSTALL\rory3\rory3.ASF
:FULLY-SPECIFIED
:DEGREES
2679
root -2.3968 17.5696 0.969159 1.83627 -2.37908 1.64141
lowerback 4.81421 0.295751 -5.68587
upperback -1.97127 0.209106 4.40618
thorax -4.81569 0.359266 7.85087
lowerneck -22.4629 -0.787718 -7.7931
upperneck 25.2744 1.1163 2.08894
head 12.0081 0.0129968 2.27645
rclavicle -2.12296e-015 -1.59028e-014
rhumerus -27.0955 -43.969 0.488601
rradius 49.0086
rwrist -5.49853
rhand -35.5039 1.08601
rfingers 7.12502
rthumb -8.63104 -28.7176
lclavicle -2.12296e-015 -1.59028e-014
lhumerus -5.39161 43.234 -7.16883
lradius 51.0998
lwrist -7.68892
lhand -22.1427 9.4005
lfingers 7.12502
lthumb 4.27095 39.3374
rfemur -11.09 2.00747 14.2725
rtibia 36.0189
rfoot -24.1587 -3.67018
rtoes 7.80411
lfemur -6.31096 -7.11548 -14.7986
ltibia 25.5736
lfoot -15.2498 12.1742
ltoes -25.2875
2680
root -2.40316 17.5734 0.954453 1.91641 -2.28567 1.60303
lowerback 4.80845 0.31704 -5.89333
upperback -1.95972 0.208256 4.05855
thorax -4.79861 0.357796 7.59454
lowerneck -22.5876 -0.760311 -7.75989
upperneck 25.244 1.11164 2.23527
head 12.0184 0.0351188 2.3261
rclavicle 6.71131e-015 -2.06736e-014
rhumerus -26.4103 -43.9208 0.338826
rradius 49.3252
rwrist -5.06645
rhand -35.6686 1.07488
rfingers 7.12502
rthumb -8.79002 -28.7221
lclavicle 6.71131e-015 -2.06736e-014
lhumerus -6.0518 43.1203 -6.97392
lradius 51.0958
lwrist -7.28391
lhand -22.2874 10.5096
lfingers 7.12502
lthumb 4.13124 40.4493
rfemur -11.18 2.0091 14.3438
rtibia 35.9476
rfoot -24.0844 -3.83603
rtoes 7.5778
lfemur -6.49528 -7.11382 -14.7021
ltibia 25.6044
lfoot -15.2585 12.1102
ltoes -25.0787
2681
root -2.40726 17.5719 0.942867 1.89863 -2.17869 1.51196
lowerback 4.86308 0.332655 -6.06473
upperback -1.96953 0.201 3.74892
thorax -4.83756 0.355688 7.36069
lowerneck -22.5122 -0.740775 -7.66378
upperneck 25.1354 1.07835 2.29481
head 11.9621 0.0409533 2.32449
rclavicle -1.10819e-014 2.38542e-015
rhumerus -25.6815 -43.8844 0.215103
rradius 49.6355
rwrist -4.52393
rhand -35.761 0.864553
rfingers 7.12502
rthumb -8.87918 -28.9286
lclavicle -1.10819e-014 2.38542e-015
lhumerus -6.71256 43.1277 -6.73168
lradius 51.0962
lwrist -7.29976
lhand -22.2252 11.053
lfingers 7.12502
lthumb 4.19132 40.9915
rfemur -11.1254 1.93941 14.4643
rtibia 35.8524
rfoot -24.0337 -3.9365
rtoes 7.39492
lfemur -6.54508 -7.17832 -14.5661
ltibia 25.6599
lfoot -15.3673 11.9814
ltoes -24.7415
2682
root -2.41087 17.574 0.932358 1.95564 -2.08363 1.21356
lowerback 4.7796 0.334975 -6.04052
upperback -1.95964 0.200913 3.54818
thorax -4.77719 0.348338 7.12915
lowerneck -22.5561 -0.692091 -7.56358
upperneck 25.1147 1.12197 2.27235
head 11.9602 0.0678573 2.30646
rclavicle -9.97884e-015 -4.6118e-014
rhumerus -24.8876 -44.0612 0.112488
rradius 49.9793
rwrist -3.85698
rhand -35.8638 1.04058
rfingers 7.12502
rthumb -8.9784 -28.7484
lclavicle -9.97884e-015 -4.6118e-014
lhumerus -7.42951 43.2214 -6.4492
lradius 51.0897
lwrist -7.32336
lhand -22.1636 10.9351
lfingers 7.12502
lthumb 4.25083 40.8724
rfemur -11.1359 1.95057 14.8116
rtibia 35.7352
rfoot -23.9937 -3.9738
rtoes 7.67632
lfemur -6.70195 -7.2608 -14.2033
ltibia 25.7599
lfoot -15.4054 11.9707
ltoes -24.7406
2683
root -2.4172 17.5773 0.920118 1.95631 -2.06463 0.968295
lowerback 4.73763 0.398409 -6.1117
upperback -1.92158 0.27424 3.3393
thorax -4.72415 0.379994 6.93838
lowerneck -22.5174 -0.718866 -7.70492
upperneck 25.0505 1.0667 2.49295
head 11.9275 0.061259 2.40276
rclavicle 1.51884e-015 1.98785e-014
rhumerus -24.2098 -44.1056 0.160872
rradius 50.2923
rwrist -3.34693
rhand -35.8154 1.24518
rfingers 7.12502
rthumb -8.93172 -28.5458
lclavicle 1.51884e-015 1.98785e-014
lhumerus -8.07382 43.1431 -6.1534
lradius 51.0274
lwrist -7.1381
lhand -22.2059 10.8827
lfingers 7.12502
lthumb 4.20997 40.8208
rfemur -11.1253 2.03167 15.1228
rtibia 35.6231
rfoot -23.8645 -4.10582
rtoes 7.48561
lfemur -6.79828 -7.2845 -13.9074
ltibia 25.8595
lfoot -15.4153 12.0398
ltoes -24.9144
2684
root -2.42212 17.5791 0.906303 2.00969 -2.00324 0.734342
lowerback 4.7203 0.429078 -6.15208
upperback -1.8916 0.302395 3.08122
thorax -4.68497 0.388117 6.68191
lowerneck -22.5849 -0.69763 -7.69871
upperneck 24.9884 1.03802 2.70479
head 11.9148 0.0797277 2.47651
rclavicle 4.48197e-015 -1.11319e-014
rhumerus -23.5763 -44.0375 0.0850425
rradius 50.6845
rwrist -2.93434
rhand -35.8556 1.21895
rfingers 7.12502
rthumb -8.97043 -28.5703
lclavicle 4.48197e-015 -1.11319e-014
lhumerus -8.73993 43.0425 -5.99772
lradius 50.9277
lwrist -6.74884
lhand -22.2296 10.8934
lfingers 7.12502
lthumb 4.18709 40.832
rfemur -11.1829 2.01265 15.4367
rtibia 35.5031
rfoot -23.7302 -4.52205
rtoes 6.32335
lfemur -6.95672 -7.34822 -13.6021
ltibia 25.9708
lfoot -15.5283 11.9885
ltoes -24.6351
2685
root -2.42459 17.5791 0.894438 2.0513 -1.88123 0.685125
lowerback 4.64924 0.448447 -6.3475
upperback -1.83439 0.306329 2.7653
thorax -4.58395 0.384746 6.45527
lowerneck -22.5823 -0.689357 -7.70399
upperneck 24.8749 0.983311 2.93402
head 11.8701 0.0890185 2.55268
rclavicle 6.46982e-015 -9.54166e-015
rhumerus -22.9675 -44.0001 0.0632909
rradius 51.0186
rwrist -2.54028
rhand -36.0542 1.325
rfingers 7.12502
rthumb -9.16212 -28.456
lclavicle 6.46982e-015 -9.54166e-015
lhumerus -9.41679 43.0027 -5.74648
lradius 50.9481
lwrist -6.41173
lhand -22.4541 10.9685
lfingers 7.12502
lthumb 3.97024 40.9112
rfemur -11.2186 1.91077 15.5208
rtibia 35.4115
rfoot -23.6883 -4.79904
rtoes 5.32416
lfemur -7.08634 -7.49695 -13.5208
ltibia 26.0549
lfoot -15.57 12.009
ltoes -24.2323
